<?xml version="1.0" encoding="UTF-8"?>
<svg id="Layer_1" xmlns="http://www.w3.org/2000/svg" version="1.1" viewBox="0 0 1920 506.25">
  <!-- Generator: Adobe Illustrator 29.3.1, SVG Export Plug-In . SVG Version: 2.1.0 Build 151)  -->
  <defs>
    <style>
      .st0 {
        fill: #fff;
      }
    </style>
  </defs>
  <path class="st0" d="M687.56,291.05V28.27c0-3.54,2.36-6.29,5.9-6.29h98.74c47.99,0,76.32,31.47,76.32,70.81,0,30.29-18.1,48.78-34.22,57.04,25.18,7.08,52.71,27.93,52.71,68.84,0,46.81-32.26,78.68-99.13,78.68h-94.41c-3.54,0-5.9-2.75-5.9-6.29ZM777.25,128.59c16.92,0,27.14-6.29,27.14-24s-10.23-22.82-27.14-22.82h-22.42v46.81h22.42ZM783.54,237.55c19.67,0,33.83-8.26,33.83-28.72s-14.16-27.93-33.83-27.93h-28.72v56.65h28.72Z"/>
  <path class="st0" d="M1068.98,242.67v48.78c0,3.54-2.36,5.9-5.9,5.9h-139.26c-3.54,0-5.9-2.75-5.9-6.29V28.27c0-3.54,2.36-6.29,5.9-6.29h56.25c3.54,0,6.29,2.75,6.29,6.29v208.49h76.71c3.54,0,5.9,2.36,5.9,5.9Z"/>
  <path class="st0" d="M1078.41,160.84c0-79.86,64.12-142.01,142.01-142.01s142.01,62.15,142.01,142.01-64.12,141.62-142.01,141.62-142.01-62.15-142.01-141.62ZM1292.8,160.84c0-42.88-31.08-74.74-72.38-74.74s-72.77,31.86-72.77,74.74,31.47,74.35,72.77,74.35,72.38-31.86,72.38-74.35Z"/>
  <path class="st0" d="M1383.25,160.84c0-81.43,65.3-142.01,142.8-142.01,39.73,0,73.56,16.13,97.95,41.7,2.75,2.75,1.18,5.51-.79,7.87l-35.01,37.37c-1.97,2.75-5.51,2.75-7.87.79-14.55-12.59-32.65-20.46-54.29-20.46-41.7,0-73.56,31.47-73.56,74.74s31.86,74.35,73.56,74.35c21.64,0,39.73-7.87,54.29-20.46,2.36-1.97,5.9-1.97,8.26.79l34.62,37.37c1.97,1.97,3.54,4.72.79,7.47-24.39,25.96-58.22,42.09-97.95,42.09-77.5,0-142.8-60.19-142.8-141.62Z"/>
  <path class="st0" d="M1651.89,291.05V28.27c0-3.54,2.36-6.29,5.9-6.29h56.25c3.54,0,6.29,2.75,6.29,6.29v108.18l80.25-111.33c1.97-2.36,4.33-3.15,7.08-3.15h68.45c5.11,0,5.51,3.93,3.15,7.08l-90.08,113.29,101.1,147.91c2.75,3.93,1.18,7.08-3.54,7.08h-65.69c-3.15,0-5.11-.79-7.08-3.54l-66.48-97.95-27.14,33.83v61.37c0,3.54-2.75,6.29-6.29,6.29h-56.25c-3.54,0-5.9-2.75-5.9-6.29Z"/>
  <path class="st0" d="M688.5,480.85v-132.2c0-1.78.99-2.96,2.76-2.96h16.38c1.78,0,2.96,1.18,2.96,2.96v132.2c0,1.77-1.18,2.96-2.96,2.96h-16.38c-1.77,0-2.76-1.18-2.76-2.96Z"/>
  <path class="st0" d="M809.02,480.85v-132.2c0-1.78.99-2.96,2.76-2.96h19.93c1.58,0,2.76.59,3.35,1.97l45.38,111.09,45.58-111.09c.59-1.38,1.58-1.97,3.16-1.97h19.93c1.77,0,2.96,1.18,2.96,2.96v132.2c0,1.77-1.18,2.96-2.96,2.96h-16.38c-1.78,0-2.76-1.18-2.76-2.96v-95.3l-2.76,8.88-35.71,87.02c-.59,1.58-1.77,2.37-3.35,2.37h-15.19c-1.58,0-2.96-.79-3.55-2.37l-35.52-87.02-2.76-8.88v95.3c0,1.77-1.18,2.96-2.96,2.96h-16.38c-1.78,0-2.76-1.18-2.76-2.96Z"/>
  <path class="st0" d="M1151.05,483.81h-17.16c-1.58,0-2.77-.59-3.36-2.37l-8.09-24.07h-57.22l-8.29,24.07c-.59,1.78-1.58,2.37-3.35,2.37h-16.97c-2.17,0-3.16-1.38-2.37-3.35l46.96-132.4c.59-1.58,1.97-2.37,3.55-2.37h17.96c1.58,0,3.16.79,3.75,2.37l46.96,132.4c.79,1.97-.2,3.35-2.37,3.35ZM1115.73,437.64l-21.9-64.52-21.9,64.52h43.8Z"/>
  <path class="st0" d="M1231.31,415.34c0-40.25,30.78-71.23,70.84-71.23,19.34,0,35.12,6.91,47.36,19.14,1.58,1.38,1.58,2.76.2,4.34l-10.06,10.85c-1.18,1.38-2.57,1.38-3.75.2-9.47-8.09-20.52-12.83-33.74-12.83-27.63,0-48.54,21.11-48.54,49.53s20.91,49.33,49.53,49.33c25.06,0,41.24-15.79,41.83-36.5h-41.04c-1.77,0-2.76-.99-2.76-2.76v-14.21c0-1.78.99-2.76,2.76-2.76h59.2c1.77,0,2.96,1.18,2.96,2.96v9.67c0,36.5-24.07,65.31-63.53,65.31s-71.23-30.78-71.23-71.03Z"/>
  <path class="st0" d="M1454.21,480.85v-132.2c0-1.78.99-2.96,2.76-2.96h16.38c1.78,0,2.96,1.18,2.96,2.96v132.2c0,1.77-1.18,2.96-2.96,2.96h-16.38c-1.77,0-2.76-1.18-2.76-2.96Z"/>
  <path class="st0" d="M1687.85,348.65v132.2c0,1.77-1.18,2.96-2.96,2.96h-20.13c-1.58,0-2.76-.59-3.55-1.97l-56.04-102.01v101.02c0,1.77-1.18,2.96-2.96,2.96h-16.38c-1.77,0-2.76-1.18-2.76-2.96v-132.2c0-1.78.99-2.96,2.76-2.96h20.13c1.58,0,2.77.59,3.55,1.97l56.04,102.01v-101.02c0-1.78,1.18-2.96,2.96-2.96h16.38c1.78,0,2.96,1.18,2.96,2.96Z"/>
  <path class="st0" d="M1757.06,415.34c0-40.25,30.78-71.23,70.84-71.23,19.34,0,35.12,6.91,47.36,19.14,1.58,1.38,1.58,2.76.2,4.34l-10.06,10.85c-1.18,1.38-2.57,1.38-3.75.2-9.47-8.09-20.52-12.83-33.74-12.83-27.62,0-48.54,21.11-48.54,49.53s20.92,49.33,49.53,49.33c25.06,0,41.24-15.79,41.83-36.5h-41.04c-1.77,0-2.76-.99-2.76-2.76v-14.21c0-1.78.99-2.76,2.76-2.76h59.2c1.77,0,2.96,1.18,2.96,2.96v9.67c0,36.5-24.07,65.31-63.54,65.31s-71.23-30.78-71.23-71.03Z"/>
  <g>
    <path class="st0" d="M90.68,133.28H26.97v107.54h63.71c0-35.32,0-73.29,0-107.54Z"/>
    <path class="st0" d="M541.55,343.85c.35,4.94.55,9.74.65,14.44h63.34v-107.64h-96.49c19.68,31.61,30.5,65.28,32.5,93.19Z"/>
    <path class="st0" d="M90.68,21.98h-6.43c-31.64,0-57.28,25.64-57.28,57.28v44.18h63.71c0-57.06,0-101.46,0-101.46Z"/>
    <path class="st0" d="M465.11,133.28v65.37c14.58,12.79,27.09,27.13,37.5,42.16h102.93v-107.54h-140.43Z"/>
    <rect class="st0" x="320.19" y="22.11" width="135.08" height="101.33"/>
    <path class="st0" d="M605.55,123.44V33.97c0-6.55-5.31-11.86-11.86-11.86h-128.58v101.33h140.43Z"/>
    <path class="st0" d="M90.68,250.65H26.97v107.64h63.71c0-19.08,0-60.32,0-107.64Z"/>
    <path class="st0" d="M26.97,471.82c0,6.55,5.31,11.86,11.86,11.86h82.56s-30.39-43.98-30.7-114.11c0-.04,0-.56,0-1.44H26.97v103.69Z"/>
    <path class="st0" d="M511.13,483.81h82.55c6.55,0,11.86-5.31,11.86-11.86v-103.82h-63.3c-1.06,73.46-31.12,115.68-31.12,115.68Z"/>
    <path class="st0" d="M320.19,477.99c59.66-1.86,107.59-50.09,108.99-109.86h-108.99v109.86Z"/>
    <path class="st0" d="M204.08,368.13c1.38,58.87,47.89,106.56,106.28,109.77v-109.77h-106.28Z"/>
    <path class="st0" d="M310.36,22.11h-95.06c-6.55,0-11.86,5.31-11.86,11.86v89.47h106.92V22.11Z"/>
    <path class="st0" d="M310.36,253.01c-56.9,3.13-102.53,48.49-106.09,105.28h106.09v-105.28Z"/>
    <path class="st0" d="M203.44,133.28v40.63s41.31-27.99,106.92-29.38v-11.24h-106.92Z"/>
    <path class="st0" d="M429,358.29c-3.62-57.68-50.65-103.56-108.81-105.37v105.37h108.81Z"/>
    <path class="st0" d="M320.19,133.28v11.25c18.83.38,39.44,2.97,61.52,9.01,28.3,7.74,52.79,20.78,73.56,36.96v-57.22h-135.08Z"/>
  </g>
</svg>